<svg width="1918" height="1830" viewBox="0 0 1918 1830" fill="none" xmlns="http://www.w3.org/2000/svg">
<path fill-rule="evenodd" clip-rule="evenodd" d="M1395.14 1123.5C1375.1 1140.33 1356.21 1151.87 1341.48 1159.65C1333.42 1163.9 1317.6 1172.17 1297.08 1178.69C1255.01 1192.08 1219.24 1189.87 1201.19 1188.58C1182.73 1187.27 1140.06 1183.82 1095.95 1160.64C1083.06 1153.87 982.51 1098.89 970.18 987.54C968.97 976.57 961.31 896.4 1014.64 833.85C1026.52 819.93 1038.56 810.22 1047.5 803.89C980.41 886.93 967.16 988.62 1010.25 1052.25C1036.34 1090.78 1086.52 1121.01 1130.83 1122.28C1143.03 1122.62 1173.94 1123.51 1192.9 1104.72C1199.55 1098.13 1203.45 1090.38 1205.04 1087.15C1213.69 1069.66 1213.22 1053.28 1212.25 1044.6C1211.92 1026.66 1199.87 1012.18 1184.63 1009.25C1170.77 1006.59 1159.37 1014.48 1157.24 1016.01C1154.11 1024.42 1150.52 1031.28 1147.4 1036.5C1142.9 1043.99 1139 1050.51 1131.55 1056.99C1124.75 1062.87 1117.63 1066.47 1111.85 1068.69C1110.26 1072.21 1108.75 1076.27 1107.53 1080.85C1104.89 1090.81 1104.66 1099.64 1105.12 1106.29C1101.36 1102.61 1094.45 1094.76 1091.51 1082.95C1089.95 1076.68 1090 1071.19 1090.39 1067.19C1086.77 1061.39 1081.58 1051.12 1081.26 1037.92C1081 1027.01 1084.17 1019.12 1088.15 1009.55C1095.87 990.95 1108.48 973.23 1116.17 962.42C1117.52 960.51 1121.74 954.63 1124.98 946.06C1128.56 936.58 1128.42 930.48 1128.34 928.8C1128.24 926.39 1127.97 921.21 1125.14 915.44C1123.98 913.05 1122.64 911.22 1120.02 907.64C1117 903.52 1114.29 900.26 1112.33 898.03C1118.33 900.04 1132.02 905.51 1143.07 918.74C1157.1 935.54 1157.57 953.72 1157.49 959.27C1161.08 956.71 1186.09 938.42 1183.15 918.59C1179.55 894.43 1137.11 885.95 1116.13 885.08C1087.36 883.89 1066.04 895.64 1058.14 900.55C1030.22 917.88 1019.03 943.3 1015.6 952.1C1012.47 912.42 1026.6 875.6 1053.63 857.38C1071.37 845.41 1092.8 842.72 1094.22 842.56C1110.81 840.63 1124.55 843.71 1135.46 847.07C1186.89 862.88 1238.87 895.96 1291.4 946.3C1316.07 969.95 1331.33 984.55 1348.11 1009.45C1377.61 1053.22 1389.69 1095.89 1395.14 1123.5ZM1113.71 1025.07C1113.67 1024.49 1113.13 1018.21 1108.4 1015.89C1107.67 1015.54 1106.6 1015.15 1105.17 1015.09C1103.83 1017.78 1102.12 1022.02 1101.47 1027.49C1100.88 1032.44 1101.39 1036.6 1101.96 1039.41C1102.9 1039.35 1107.17 1038.98 1110.5 1035.39C1114.41 1031.14 1113.82 1025.82 1113.71 1025.07Z" fill="#FF9204"/>
<path d="M1041.66 1284.75C1049.09 1285.64 1055.93 1286.28 1062.08 1286.85C1055.24 1286.33 1048.44 1285.64 1041.66 1284.75Z" fill="#004A3B"/>
<path d="M1395.38 1156.98C1385.33 1169.55 1371.93 1184.28 1354.69 1198.88C1333.63 1216.72 1309.32 1232.26 1282.84 1245.14C1309.64 1231.27 1330.85 1215.62 1336.2 1211.62C1360.9 1193.15 1379.78 1174.43 1391.44 1161.44C1392.87 1159.86 1394.17 1158.37 1395.38 1156.98Z" fill="#004A3B"/>
<path d="M1404.96 1144.37C1405.06 1144.47 1404.66 1145.17 1403.79 1146.42C1401.89 1149.17 1397.71 1154.48 1391.44 1161.44C1398.47 1152.7 1402.78 1146.72 1404.33 1144.92C1404.69 1144.5 1404.91 1144.31 1404.96 1144.37Z" fill="#002B20"/>
<path d="M1062.08 1286.85C1055.24 1286.33 1048.44 1285.64 1041.66 1284.75C1049.09 1285.64 1055.93 1286.28 1062.08 1286.85Z" fill="#001D12"/>
<path d="M1395.38 1156.98C1385.33 1169.55 1371.93 1184.28 1354.69 1198.88C1333.63 1216.72 1309.32 1232.26 1282.84 1245.14C1309.64 1231.27 1330.85 1215.62 1336.2 1211.62C1360.9 1193.15 1379.78 1174.43 1391.44 1161.44C1392.87 1159.86 1394.17 1158.37 1395.38 1156.98Z" fill="#001D12"/>
<path d="M1429.6 1186.63C1429.59 1186.64 1429.59 1186.65 1429.59 1186.65C1429.59 1186.64 1429.6 1186.64 1429.6 1186.63Z" fill="#005242"/>
<path d="M777.559 633.38C776.729 633 775.909 632.59 775.109 632.16C750.969 619 732.909 610.03 710.519 596.48C639.659 553.58 520.299 481.31 449.359 344.59C444.009 334.29 421.829 290.7 406.469 228.64C384.179 138.67 388.479 58.1799 397.639 0.419922C426.319 798.81 1600.89 559.25 1422.32 1181.8C1423.29 1168.2 1423.86 1146.79 1419.96 1121.18C1389.6 870.51 1072.5 767.95 777.559 633.38Z" fill="#FF9204"/>
<path d="M1422.32 1181.78C1840.12 368.53 711.77 709.35 397.64 0.429932C540.93 715.31 1751.11 495.88 1422.32 1181.78Z" fill="#E22E02"/>
<path d="M1488.25 1122.35C1464.25 1150.33 1439.89 1169.56 1422.32 1181.8C1422.32 1181.79 1422.32 1181.79 1422.32 1181.78C1840.12 368.53 711.77 709.35 397.64 0.429924V0.419922C408.9 19.6599 427.92 50.1699 455.14 84.7099C611.14 282.56 834.67 356.32 906.07 378.91C913.46 381.25 935.97 387.75 958.13 394.18C1052 421.33 1120.03 439.11 1130.59 441.95C1273.74 480.39 1479.97 535.79 1552.09 694.53C1614.5 831.85 1582.23 1012.78 1488.25 1122.35Z" fill="#D60C00"/>
<path d="M397.64 0.419922C397.64 0.429922 397.64 0.429924 397.64 0.429924C540.93 715.31 1751.11 495.88 1422.32 1181.78C1422.32 1181.79 1422.32 1181.79 1422.32 1181.8C1600.89 559.25 426.32 798.81 397.64 0.419922Z" fill="#FF6D00"/>
<path d="M1171.55 1373.76C1127.75 1392.81 1023.79 1431.59 902.2 1431.59C827.8 1431.59 769.55 1428.65 691.68 1386.19L721.18 1359.26C899.68 1428.64 1107.15 1393.62 1171.55 1373.76Z" fill="#D60C00"/>
<path d="M763.569 1320.58L808.699 1279.39C834.179 1301.29 833.659 1298.34 845.169 1305.38C913.169 1346.99 976.159 1360.98 1006.17 1366.53C1084.01 1380.87 1149.29 1373.01 1189.72 1364.88C1166.37 1370.47 935.299 1430.06 763.569 1320.58Z" fill="#FF9204"/>
<path d="M1171.55 1373.76C1107.15 1393.62 866.43 1442.51 721.18 1359.26L763.57 1320.58C935.3 1430.06 1166.37 1370.47 1189.72 1364.88C1190.36 1364.75 1191.02 1364.62 1191.65 1364.49C1188.43 1366.09 1181.56 1369.41 1171.55 1373.76Z" fill="#FF6D00"/>
<path d="M601.29 710.22C646.87 734.48 676.1 760.22 687.35 770.6C696.41 778.98 703.6 786.4 708.62 791.79C692.7 820.73 639.26 926.13 667.83 1058.76C689.07 1157.11 745.38 1223.88 789.81 1263.48L744.13 1305.46C696.04 1261.82 462.27 1027.49 601.29 710.22Z" fill="#FF9204"/>
<path d="M702.27 1343.73L668.91 1374.59C666.52 1373.31 664.12 1371.96 661.73 1370.6C506.11 1266.83 436.66 1140.03 402.89 1034.3C376.75 952.4 369.57 879.48 362.66 809.11C357.31 754.99 355.92 709.37 355.68 676.64C362.1 675 370.76 672.97 381.18 671.17C386.09 670.34 403.25 667.46 427.36 666.42C444.7 665.66 460.36 666.07 470.98 666.76C379.25 1056.11 642.16 1294.29 702.27 1343.73Z" fill="#D60C00"/>
<path d="M744.13 1305.46L702.27 1343.73C642.16 1294.29 379.25 1056.11 470.98 666.76C472.64 666.87 474.18 666.98 475.58 667.1C521.99 671.01 561.47 690.41 588.73 703.78C593.05 705.91 597.22 708.06 601.29 710.22C462.27 1027.49 696.04 1261.82 744.13 1305.46Z" fill="#FF6D00"/>
<path d="M1403.79 1146.42C1383.34 1182.25 1314.49 1291.1 1181.74 1330.78C1001.12 1384.79 790.35 1284.43 718.81 1117.87C685.5 1040.33 675.87 933.31 721.53 834.57C753.97 764.39 803.41 722.07 831.52 701.46L831.49 701.29L849.78 709.27C867.36 716.86 884.93 724.44 902.51 732.03C914.5 737.21 926.05 742.53 938.05 747.71C938.01 747.72 937.97 747.74 937.94 747.76L965.09 759.61C885.61 763.45 755.62 891.23 774.9 1039.8C776.41 1050.02 778.18 1058.19 779.49 1063.67C779.73 1064.63 779.96 1065.59 780.21 1066.55C780.22 1066.56 780.22 1066.57 780.22 1066.59C783.23 1078.56 786.97 1089.85 791.25 1100.54C807.25 1139.23 834.63 1178.38 876.66 1216.28C888.79 1226.32 901.66 1235.24 915.13 1243.07C915.32 1243.17 915.5 1243.28 915.67 1243.39C963.28 1272.02 1008.26 1280.77 1041.49 1284.73C1041.55 1284.74 1041.6 1284.75 1041.66 1284.75C1048.44 1285.64 1055.24 1286.33 1062.08 1286.85C1062.29 1286.87 1062.49 1286.88 1062.69 1286.91C1073.71 1287.93 1182.5 1297.07 1282.79 1245.17C1282.81 1245.17 1282.83 1245.16 1282.84 1245.14C1309.32 1232.26 1333.63 1216.72 1354.69 1198.88C1371.93 1184.28 1385.33 1169.55 1395.38 1156.98C1399.48 1152.21 1402.32 1148.55 1403.79 1146.42Z" fill="#D60C00"/>
<path d="M961.34 877.37C951.37 901.48 940.62 927.74 939.94 962.97C939.91 964.34 939.87 966.46 939.88 969.23C939.93 979.47 940.74 1000.01 947.3 1025.07C949.17 1032.21 953.32 1046.67 961.32 1063.94C963.68 1069.02 971.2 1084.79 984.48 1103.43C987.89 1108.21 994.26 1117.09 1003.73 1127.33C1022.32 1147.43 1040.24 1159.12 1053.44 1167.61C1073.48 1180.51 1090.45 1188.17 1097.6 1191.26C1158.48 1217.56 1213 1216.52 1230.5 1215.68C1258.45 1214.35 1279.47 1209.33 1286.54 1207.55C1341.47 1193.66 1386.76 1170.43 1404.96 1144.36C1378.2 1182.68 1320.4 1249.08 1221.15 1277.84C1196.95 1284.85 1048.79 1331.65 922.39 1253.74C890.84 1234.29 868.8 1212.18 855.02 1196.33C865.18 1203.4 884.85 1215.11 912.42 1219.77C939.56 1224.36 961.67 1219.97 973.57 1216.71C957 1214.49 927.2 1208.29 896.12 1188.18C888.91 1183.52 859.01 1163.47 837.01 1127.04C789.8 1048.83 815.66 955.82 816.63 955.84C817.33 955.86 806.35 1003.01 831.92 1047.55C843.56 1067.83 859.46 1081.78 873.7 1091.37C864.07 1076.57 837.82 1032.02 842.11 971.13C847.7 891.86 900.83 844.63 911.4 835.59C905.24 842.34 875.48 876.28 878.8 925.27C880.68 953.15 892.44 973.47 899.18 983.35C897.32 967.3 896.29 941.34 904.27 911C915.27 869.21 937.13 842.75 943 835.93C971.16 803.18 1003.95 788.85 1020.44 782.94C988.58 819.14 971.02 853.96 961.34 877.37Z" fill="#FF9204"/>
<path d="M1324.42 1205.69C1229.21 1260.87 1126.03 1265.85 1048.78 1227.46C1067.97 1230.18 1084.63 1227.61 1099.8 1221.93C1085.39 1217.41 1069.56 1211.17 1053.05 1202.45C1051.33 1201.54 1049.38 1200.5 1047.23 1199.33C1031.09 1190.52 1003.76 1173.95 977.64 1144.36C965.76 1130.9 931.58 1091.19 920.07 1029.21C902.58 935.1 950.86 862.34 960.83 847.31C986.89 808.03 1019.93 782.48 1020.44 782.94C1020.75 783.23 1009.87 794.24 996.46 813.43C991.61 820.38 983.96 831.87 975.82 846.88C972.09 853.76 963.08 870.96 954.41 894.6C950.38 905.56 947.48 915.07 945.45 922.32C943.47 929.36 938.22 953.62 940.59 985.65C941.06 991.99 942.72 1010.62 949.78 1033.82C952.81 1043.75 960.39 1066.25 976.61 1091.71C982.52 1100.98 995.56 1120.04 1017 1139.83C1020.06 1142.65 1034.73 1156.04 1057.2 1169.99C1064.11 1174.28 1086.77 1187.95 1119.54 1199.14C1158.33 1212.37 1189.82 1214.81 1198.81 1215.39C1204.49 1215.75 1231.63 1217.33 1261.7 1212.64C1346.74 1199.38 1404.12 1143.18 1404.96 1144.36C1405.59 1145.24 1376.13 1179.28 1324.42 1205.69Z" fill="#FF6D00"/>
<path d="M131.72 1646.61C133.14 1625.89 123 1606.07 112.91 1599.58H197.79C198.89 1633.74 184.09 1646.61 131.72 1646.61Z" fill="url(#paint0_linear_225_86)"/>
<path d="M120.82 1643.05V1660.22V1826.42C100.18 1828.89 83.87 1820.16 78.8 1782.22V1642.69H38.03C18.09 1642.69 1.51 1627.32 0.0500031 1607.45L0 1599.58L90.86 1599.21C108.35 1602.6 117.96 1617.77 120.82 1643.05Z" fill="url(#paint1_linear_225_86)"/>
<path d="M271.4 1599.21L368.41 1826.81H353.82C339.18 1826.81 325.95 1818.05 320.24 1804.56L269.08 1683.77C253.93 1648.85 262.35 1623.9 271.4 1599.21Z" fill="url(#paint2_linear_225_86)"/>
<path d="M265.83 1702.75C268.63 1712.93 267.85 1721.62 263.62 1731.29L233 1805.01C227.52 1818.21 214.64 1826.81 200.35 1826.81H183.06L250.42 1666.58L265.83 1702.75Z" fill="url(#paint3_linear_225_86)"/>
<path d="M1179.01 1599.21L1276.03 1826.81H1261.44C1246.79 1826.81 1233.56 1818.05 1227.85 1804.56L1176.69 1683.77C1161.54 1648.85 1169.97 1623.9 1179.01 1599.21Z" fill="url(#paint4_linear_225_86)"/>
<path d="M1173.44 1702.75C1176.24 1712.93 1175.46 1721.62 1171.23 1731.29L1140.62 1805.01C1135.14 1818.21 1122.25 1826.81 1107.97 1826.81H1090.68L1158.03 1666.58L1173.44 1702.75Z" fill="url(#paint5_linear_225_86)"/>
<path d="M1605.24 1671.3C1608.33 1663.79 1610.25 1657.17 1610.98 1651.42C1611.72 1645.68 1611.64 1640.67 1610.76 1636.41C1609.88 1632.13 1608.51 1628.56 1606.67 1625.69C1604.84 1622.82 1603.03 1620.5 1601.26 1618.74C1599.49 1616.97 1597.36 1615.57 1594.86 1614.54C1592.35 1613.51 1589.85 1612.62 1587.35 1611.89C1584.84 1611.15 1582.38 1610.38 1579.95 1609.57C1577.52 1608.75 1575.35 1607.54 1573.43 1605.93C1569.31 1602.68 1566.59 1598.34 1565.26 1592.89C1563.94 1587.44 1565.78 1581.77 1570.78 1575.89C1575.05 1570.73 1580.32 1567.9 1586.58 1567.38C1592.84 1566.86 1599.05 1569.11 1605.24 1574.12C1612.16 1579.86 1617.13 1586.89 1620.15 1595.21C1623.16 1603.53 1624.46 1612.18 1624.01 1621.16C1623.57 1630.14 1621.69 1639.01 1618.38 1647.78C1615.07 1656.54 1610.69 1664.38 1605.24 1671.3Z" fill="url(#paint6_linear_225_86)"/>
<path d="M806.75 1599.21C806.75 1608.08 803.58 1615.65 797.42 1621.85C792.66 1626.6 787.03 1629.59 780.7 1630.68C779.89 1630.82 779.04 1630.93 778.16 1631H692.05C690.54 1631 689.03 1631.07 687.58 1631.18H687.37C682.87 1631.18 678.64 1632.02 674.7 1633.64C674.63 1633.64 674.56 1633.68 674.52 1633.71C666.57 1636.32 659.42 1640.82 653.05 1647.23C645.48 1654.59 640.59 1663.14 638.26 1672.82C637.24 1677.12 636.75 1681.62 636.75 1686.38C636.75 1695.49 638.79 1703.98 642.91 1711.72C638.58 1707.67 634.74 1702.92 631.36 1697.43C628.06 1691.94 625.66 1686.06 624.15 1679.9C622.95 1674.93 622.35 1669.76 622.35 1664.37C622.35 1646.17 628.69 1630.86 641.5 1618.36C654.14 1605.55 669.49 1599.21 687.37 1599.21H806.75Z" fill="url(#paint7_linear_225_86)"/>
<path d="M774.96 1631.18H687.58C689.03 1631.07 690.54 1631 692.05 1631H778.16C777.1 1631.11 776.05 1631.18 774.96 1631.18Z" fill="url(#paint8_linear_225_86)"/>
<path d="M661.429 1666.52C661.359 1665.64 661.319 1664.76 661.319 1663.88C661.319 1661.45 661.529 1659.16 661.989 1656.95C662.059 1656.88 662.129 1656.77 662.199 1656.7C661.639 1659.13 661.359 1661.7 661.359 1664.37C661.359 1665.11 661.389 1665.82 661.429 1666.52Z" fill="url(#paint9_linear_225_86)"/>
<path d="M690.36 1729.22C689.1 1729.08 687.87 1728.94 686.63 1728.76C687.97 1728.94 689.31 1729.08 690.68 1729.18H748.77C757.95 1729.18 765.84 1732.46 772.18 1738.93C772.35 1739.11 772.56 1739.32 772.74 1739.53C766.09 1732.74 756.65 1729.22 747.08 1729.22H690.36Z" fill="url(#paint10_linear_225_86)"/>
<path d="M781.4 1756.75C780.77 1752.87 779.5 1749.28 777.6 1745.97C777.74 1746.15 777.84 1746.36 777.95 1746.57C779.71 1749.71 780.84 1753.08 781.4 1756.75Z" fill="url(#paint11_linear_225_86)"/>
<path d="M769.75 1700.88C769.96 1700.95 770.17 1701.04 770.39 1701.12C768.86 1700.61 767.329 1700.09 765.729 1699.68C767.109 1700.03 768.44 1700.46 769.75 1700.88Z" fill="url(#paint12_linear_225_86)"/>
<path d="M636.43 1827.4C636.43 1818.53 639.6 1810.96 645.76 1804.76C650.51 1800.01 656.15 1797.02 662.48 1795.93C663.29 1795.79 664.14 1795.68 665.02 1795.61H751.13C752.64 1795.61 754.15 1795.54 755.6 1795.43H755.81C760.31 1795.43 764.54 1794.59 768.48 1792.97C768.55 1792.97 768.62 1792.93 768.66 1792.9C776.61 1790.29 783.76 1785.79 790.13 1779.38C797.7 1772.02 802.59 1763.47 804.92 1753.79C805.94 1749.49 806.43 1744.99 806.43 1740.24C806.43 1731.12 804.39 1722.63 800.27 1714.89C804.6 1718.94 808.44 1723.69 811.81 1729.18C815.12 1734.67 817.52 1740.55 819.03 1746.71C820.23 1751.68 820.83 1756.85 820.83 1762.24C820.83 1780.44 814.49 1795.75 801.68 1808.25C789.04 1821.06 773.69 1827.4 755.81 1827.4H636.43Z" fill="url(#paint13_linear_225_86)"/>
<path d="M668.219 1795.43H755.599C754.149 1795.54 752.64 1795.61 751.13 1795.61H665.02C666.07 1795.5 667.129 1795.43 668.219 1795.43Z" fill="url(#paint14_linear_225_86)"/>
<path d="M794 1734.01V1734.25C794 1739 793.51 1743.51 792.49 1747.8C790.55 1755.9 786.82 1763.22 781.19 1769.67C781.65 1767.45 781.86 1765.16 781.86 1762.73C781.86 1762.55 781.86 1762.41 781.82 1762.24C781.82 1761.5 781.79 1760.79 781.75 1760.09C781.75 1759.63 781.68 1759.14 781.65 1758.68C781.58 1758.01 781.51 1757.38 781.4 1756.75C780.84 1753.08 779.71 1749.71 777.95 1746.57C777.84 1746.36 777.74 1746.15 777.6 1745.97C777.18 1745.13 776.65 1744.32 776.05 1743.54C775.52 1742.74 774.92 1741.96 774.25 1741.22C773.9 1740.8 773.51 1740.38 773.13 1739.95C772.99 1739.81 772.88 1739.67 772.74 1739.53C772.56 1739.32 772.35 1739.11 772.18 1738.93C765.84 1732.46 757.95 1729.18 748.77 1729.18H690.68C689.31 1729.08 687.97 1728.94 686.63 1728.76C684.59 1728.48 682.62 1728.13 680.68 1727.7C679.59 1727.46 678.5 1727.21 677.45 1726.93C676.07 1726.58 674.73 1726.15 673.43 1725.73C659.21 1720.98 649.25 1707.6 649.18 1692.61V1692.36C649.18 1687.61 649.67 1683.1 650.69 1678.81C652.63 1670.71 656.36 1663.39 661.99 1656.95C661.53 1659.16 661.32 1661.45 661.32 1663.88C661.32 1664.76 661.36 1665.64 661.43 1666.52C661.43 1666.98 661.5 1667.47 661.53 1667.93C661.6 1668.6 661.67 1669.23 661.78 1669.87C662.34 1673.53 663.47 1676.91 665.23 1680.04C665.34 1680.25 665.44 1680.46 665.58 1680.64C666 1681.48 666.53 1682.29 667.13 1683.07C667.66 1683.88 668.26 1684.65 668.93 1685.39C669.42 1685.99 669.91 1686.52 670.44 1687.08C670.62 1687.29 670.83 1687.5 671 1687.68C677.34 1694.16 685.22 1697.43 694.41 1697.43H752.5C753.87 1697.53 755.21 1697.68 756.55 1697.85C758.59 1698.13 760.56 1698.48 762.5 1698.91C763.59 1699.15 764.68 1699.4 765.73 1699.68C767.11 1700.03 768.44 1700.46 769.75 1700.88C783.97 1705.63 793.93 1719.01 794 1734.01Z" fill="url(#paint15_linear_225_86)"/>
<path d="M661.779 1669.87C662.409 1673.74 663.679 1677.33 665.579 1680.64C665.439 1680.46 665.339 1680.25 665.229 1680.04C663.469 1676.91 662.339 1673.53 661.779 1669.87Z" fill="url(#paint16_linear_225_86)"/>
<path d="M673.43 1725.73C673.21 1725.66 673.01 1725.57 672.79 1725.49C674.32 1726.01 675.85 1726.52 677.45 1726.93C676.07 1726.58 674.73 1726.15 673.43 1725.73Z" fill="url(#paint17_linear_225_86)"/>
<path d="M752.809 1697.39C754.079 1697.53 755.309 1697.68 756.549 1697.85C755.209 1697.68 753.869 1697.53 752.499 1697.43H694.409C685.219 1697.43 677.339 1694.16 670.999 1687.68C670.829 1687.5 670.619 1687.29 670.439 1687.08C677.089 1693.87 686.529 1697.39 696.099 1697.39H752.809Z" fill="url(#paint18_linear_225_86)"/>
<path d="M781.82 1762.24C781.86 1762.41 781.859 1762.55 781.859 1762.73C781.859 1765.16 781.65 1767.45 781.19 1769.67C781.12 1769.74 781.049 1769.84 780.979 1769.91C781.539 1767.48 781.82 1764.91 781.82 1762.24Z" fill="url(#paint19_linear_225_86)"/>
<path d="M1352.88 1599.21H1355.21V1758.93L1472.71 1612.63C1479.51 1604.15 1489.8 1599.22 1500.68 1599.22H1519.01L1369.27 1799.66C1357.62 1815.25 1339.3 1824.44 1319.84 1824.44V1632.26C1319.84 1614.01 1334.63 1599.21 1352.88 1599.21Z" fill="url(#paint20_linear_225_86)"/>
<path d="M1450.84 1715.83L1521.68 1826.81H1504.47C1489.03 1826.81 1474.66 1818.94 1466.33 1805.94L1428.51 1746.84L1450.84 1715.83Z" fill="url(#paint21_linear_225_86)"/>
<path d="M438.45 1599.21H440.78V1758.93L558.27 1612.63C565.08 1604.15 575.36 1599.22 586.24 1599.22H604.57L454.84 1799.66C443.19 1815.25 424.86 1824.44 405.4 1824.44V1632.26C405.4 1614.01 420.19 1599.21 438.45 1599.21Z" fill="url(#paint22_linear_225_86)"/>
<path d="M536.4 1715.83L607.24 1826.81H590.03C574.59 1826.81 560.22 1818.94 551.9 1805.94L514.07 1746.84L536.4 1715.83Z" fill="url(#paint23_linear_225_86)"/>
<path d="M1052.85 1599.21V1828.14H1049.29C1029.82 1828.14 1014.07 1812.36 1014.07 1792.92V1722.7H880.7C867.75 1722.7 863.17 1726.42 858.9 1732.13V1599.21H861.35C879.94 1599.21 895.3 1613.06 897.69 1630.95C897.9 1632.55 898.02 1634.19 898.02 1635.85V1694.34H1014.07V1630.08C1014.07 1613.03 1027.88 1599.21 1044.93 1599.21H1052.85Z" fill="url(#paint24_linear_225_86)"/>
<path d="M897.69 1732.73V1745.88V1792.92C897.69 1802.74 893.67 1811.6 887.2 1818.01C880.85 1824.27 872.12 1828.14 862.47 1828.14H858.9V1818.1V1756.13C858.9 1752.44 859.75 1748.97 861.29 1745.88C865.07 1738.08 873.08 1732.73 882.33 1732.73H897.69Z" fill="url(#paint25_linear_225_86)"/>
<path d="M1805.06 1804.97C1811.98 1811.85 1815.33 1820.06 1815.33 1829.65H1674V1753.85H1708.93V1794.73H1780.41C1790.01 1794.73 1798.18 1798.08 1805.06 1804.97ZM1770.14 1695.53C1777.2 1688.46 1780.73 1679.97 1780.73 1670.2C1780.73 1660.28 1777.2 1651.79 1770.14 1644.73C1763.25 1637.84 1754.76 1634.31 1744.81 1634.31H1708.93C1701.08 1634.31 1694.19 1632.07 1688.09 1627.43C1678.64 1620.22 1674 1610.77 1674 1599.21H1744.67C1764.22 1599.21 1780.88 1606.1 1794.64 1619.9C1799 1624.22 1802.67 1629.03 1805.7 1634.31C1812.12 1645.05 1815.33 1656.89 1815.33 1669.88C1815.33 1682.86 1812.12 1694.88 1805.7 1705.62C1802.67 1710.9 1799 1715.72 1794.64 1720.03C1780.88 1733.84 1764.22 1740.72 1744.67 1740.72H1674C1674 1729.16 1678.64 1719.71 1688.09 1712.51C1694.19 1707.87 1701.08 1705.62 1708.93 1705.62H1739.71C1741.46 1705.8 1743.06 1705.94 1744.81 1705.94C1746.59 1705.94 1748.2 1705.8 1749.95 1705.62C1757.97 1704.34 1764.68 1700.98 1770.14 1695.53Z" fill="url(#paint26_linear_225_86)"/>
<path d="M1882.77 1829.65V1634.96C1882.77 1625.18 1886.14 1617.01 1893.03 1610.12C1899.92 1603.23 1908.09 1599.86 1917.87 1599.86V1829.65H1882.77Z" fill="url(#paint27_linear_225_86)"/>
<defs>
<linearGradient id="paint0_linear_225_86" x1="112.912" y1="1594.06" x2="196.815" y2="1594.06" gradientUnits="userSpaceOnUse">
<stop stop-color="#FF8E33"/>
<stop offset="1" stop-color="#FF4F26"/>
</linearGradient>
<linearGradient id="paint1_linear_225_86" x1="0" y1="1593.75" x2="120.819" y2="1593.75" gradientUnits="userSpaceOnUse">
<stop stop-color="#FF8E33"/>
<stop offset="1" stop-color="#FF4F26"/>
</linearGradient>
<linearGradient id="paint2_linear_225_86" x1="267.162" y1="1593.7" x2="368.412" y2="1593.7" gradientUnits="userSpaceOnUse">
<stop stop-color="#FF8E33"/>
<stop offset="1" stop-color="#FF4F26"/>
</linearGradient>
<linearGradient id="paint3_linear_225_86" x1="183.064" y1="1661.07" x2="266.344" y2="1661.07" gradientUnits="userSpaceOnUse">
<stop stop-color="#FF8E33"/>
<stop offset="1" stop-color="#FF4F26"/>
</linearGradient>
<linearGradient id="paint4_linear_225_86" x1="1174.78" y1="1593.7" x2="1276.03" y2="1593.7" gradientUnits="userSpaceOnUse">
<stop stop-color="#FF8E33"/>
<stop offset="1" stop-color="#FF4F26"/>
</linearGradient>
<linearGradient id="paint5_linear_225_86" x1="1090.68" y1="1661.07" x2="1173.96" y2="1661.07" gradientUnits="userSpaceOnUse">
<stop stop-color="#FF8E33"/>
<stop offset="1" stop-color="#FF4F26"/>
</linearGradient>
<linearGradient id="paint6_linear_225_86" x1="1656.83" y1="1627.05" x2="1609.1" y2="1674.78" gradientUnits="userSpaceOnUse">
<stop stop-color="#FF8E33"/>
<stop offset="1" stop-color="#FF4F26"/>
</linearGradient>
<linearGradient id="paint7_linear_225_86" x1="622.352" y1="1593.7" x2="806.746" y2="1593.7" gradientUnits="userSpaceOnUse">
<stop stop-color="#FF8E33"/>
<stop offset="1" stop-color="#FF4F26"/>
</linearGradient>
<linearGradient id="paint8_linear_225_86" x1="687.584" y1="1625.49" x2="778.161" y2="1625.49" gradientUnits="userSpaceOnUse">
<stop stop-color="#FF8E33"/>
<stop offset="1" stop-color="#FF4F26"/>
</linearGradient>
<linearGradient id="paint9_linear_225_86" x1="661.321" y1="1651.19" x2="662.201" y2="1651.19" gradientUnits="userSpaceOnUse">
<stop stop-color="#FF8E33"/>
<stop offset="1" stop-color="#FF4F26"/>
</linearGradient>
<linearGradient id="paint10_linear_225_86" x1="686.633" y1="1723.25" x2="772.74" y2="1723.25" gradientUnits="userSpaceOnUse">
<stop stop-color="#FF8E33"/>
<stop offset="1" stop-color="#FF4F26"/>
</linearGradient>
<linearGradient id="paint11_linear_225_86" x1="777.598" y1="1740.46" x2="781.4" y2="1740.46" gradientUnits="userSpaceOnUse">
<stop stop-color="#FF8E33"/>
<stop offset="1" stop-color="#FF4F26"/>
</linearGradient>
<linearGradient id="paint12_linear_225_86" x1="765.733" y1="1694.17" x2="770.386" y2="1694.17" gradientUnits="userSpaceOnUse">
<stop stop-color="#FF8E33"/>
<stop offset="1" stop-color="#FF4F26"/>
</linearGradient>
<linearGradient id="paint13_linear_225_86" x1="636.434" y1="1709.38" x2="820.827" y2="1709.38" gradientUnits="userSpaceOnUse">
<stop stop-color="#FF8E33"/>
<stop offset="1" stop-color="#FF4F26"/>
</linearGradient>
<linearGradient id="paint14_linear_225_86" x1="665.018" y1="1789.92" x2="755.595" y2="1789.92" gradientUnits="userSpaceOnUse">
<stop stop-color="#FF8E33"/>
<stop offset="1" stop-color="#FF4F26"/>
</linearGradient>
<linearGradient id="paint15_linear_225_86" x1="649.177" y1="1651.43" x2="794.002" y2="1651.43" gradientUnits="userSpaceOnUse">
<stop stop-color="#FF8E33"/>
<stop offset="1" stop-color="#FF4F26"/>
</linearGradient>
<linearGradient id="paint16_linear_225_86" x1="661.779" y1="1664.35" x2="665.581" y2="1664.35" gradientUnits="userSpaceOnUse">
<stop stop-color="#FF8E33"/>
<stop offset="1" stop-color="#FF4F26"/>
</linearGradient>
<linearGradient id="paint17_linear_225_86" x1="672.79" y1="1719.98" x2="677.445" y2="1719.98" gradientUnits="userSpaceOnUse">
<stop stop-color="#FF8E33"/>
<stop offset="1" stop-color="#FF4F26"/>
</linearGradient>
<linearGradient id="paint18_linear_225_86" x1="670.439" y1="1681.57" x2="756.545" y2="1681.57" gradientUnits="userSpaceOnUse">
<stop stop-color="#FF8E33"/>
<stop offset="1" stop-color="#FF4F26"/>
</linearGradient>
<linearGradient id="paint19_linear_225_86" x1="780.976" y1="1756.72" x2="781.856" y2="1756.72" gradientUnits="userSpaceOnUse">
<stop stop-color="#FF8E33"/>
<stop offset="1" stop-color="#FF4F26"/>
</linearGradient>
<linearGradient id="paint20_linear_225_86" x1="1319.83" y1="1593.7" x2="1519.01" y2="1593.7" gradientUnits="userSpaceOnUse">
<stop stop-color="#FF8E33"/>
<stop offset="1" stop-color="#FF4F26"/>
</linearGradient>
<linearGradient id="paint21_linear_225_86" x1="1428.51" y1="1710.32" x2="1521.68" y2="1710.32" gradientUnits="userSpaceOnUse">
<stop stop-color="#FF8E33"/>
<stop offset="1" stop-color="#FF4F26"/>
</linearGradient>
<linearGradient id="paint22_linear_225_86" x1="405.398" y1="1593.7" x2="604.571" y2="1593.7" gradientUnits="userSpaceOnUse">
<stop stop-color="#FF8E33"/>
<stop offset="1" stop-color="#FF4F26"/>
</linearGradient>
<linearGradient id="paint23_linear_225_86" x1="514.069" y1="1710.32" x2="607.242" y2="1710.32" gradientUnits="userSpaceOnUse">
<stop stop-color="#FF8E33"/>
<stop offset="1" stop-color="#FF4F26"/>
</linearGradient>
<linearGradient id="paint24_linear_225_86" x1="858.905" y1="1593.7" x2="1052.85" y2="1593.7" gradientUnits="userSpaceOnUse">
<stop stop-color="#FF8E33"/>
<stop offset="1" stop-color="#FF4F26"/>
</linearGradient>
<linearGradient id="paint25_linear_225_86" x1="858.905" y1="1727.22" x2="897.688" y2="1727.22" gradientUnits="userSpaceOnUse">
<stop stop-color="#FF8E33"/>
<stop offset="1" stop-color="#FF4F26"/>
</linearGradient>
<linearGradient id="paint26_linear_225_86" x1="1674" y1="1593.7" x2="1815.33" y2="1593.7" gradientUnits="userSpaceOnUse">
<stop stop-color="#FF8E33"/>
<stop offset="1" stop-color="#FF4F26"/>
</linearGradient>
<linearGradient id="paint27_linear_225_86" x1="1882.77" y1="1594.35" x2="1917.86" y2="1594.35" gradientUnits="userSpaceOnUse">
<stop stop-color="#FF8E33"/>
<stop offset="1" stop-color="#FF4F26"/>
</linearGradient>
</defs>
</svg>
