<svg width="1230" height="1432" viewBox="0 0 1230 1432" fill="none" xmlns="http://www.w3.org/2000/svg">
<path fill-rule="evenodd" clip-rule="evenodd" d="M1040.14 1123.5C1020.1 1140.33 1001.21 1151.87 986.48 1159.65C978.42 1163.9 962.6 1172.17 942.08 1178.69C900.01 1192.08 864.24 1189.87 846.19 1188.58C827.73 1187.27 785.06 1183.82 740.95 1160.64C728.06 1153.87 627.51 1098.89 615.18 987.54C613.97 976.57 606.31 896.4 659.64 833.85C671.52 819.93 683.56 810.22 692.5 803.89C625.41 886.93 612.16 988.62 655.25 1052.25C681.34 1090.78 731.52 1121.01 775.83 1122.28C788.03 1122.62 818.94 1123.51 837.9 1104.72C844.55 1098.13 848.45 1090.38 850.04 1087.15C858.69 1069.66 858.22 1053.28 857.25 1044.6C856.92 1026.66 844.87 1012.18 829.63 1009.25C815.77 1006.59 804.37 1014.48 802.24 1016.01C799.11 1024.42 795.52 1031.28 792.4 1036.5C787.9 1043.99 784 1050.51 776.55 1056.99C769.75 1062.87 762.63 1066.47 756.85 1068.69C755.26 1072.21 753.75 1076.27 752.53 1080.85C749.89 1090.81 749.66 1099.64 750.12 1106.29C746.36 1102.61 739.45 1094.76 736.51 1082.95C734.95 1076.68 735 1071.19 735.39 1067.19C731.77 1061.39 726.58 1051.12 726.26 1037.92C726 1027.01 729.17 1019.12 733.15 1009.55C740.87 990.95 753.48 973.23 761.17 962.42C762.52 960.51 766.74 954.63 769.98 946.06C773.56 936.58 773.42 930.48 773.34 928.8C773.24 926.39 772.97 921.21 770.14 915.44C768.98 913.05 767.64 911.22 765.02 907.64C762 903.52 759.29 900.26 757.33 898.03C763.33 900.04 777.02 905.51 788.07 918.74C802.1 935.54 802.57 953.72 802.49 959.27C806.08 956.71 831.09 938.42 828.15 918.59C824.55 894.43 782.11 885.95 761.13 885.08C732.36 883.89 711.04 895.64 703.14 900.55C675.22 917.88 664.03 943.3 660.6 952.1C657.47 912.42 671.6 875.6 698.63 857.38C716.37 845.41 737.8 842.72 739.22 842.56C755.81 840.63 769.55 843.71 780.46 847.07C831.89 862.88 883.87 895.96 936.4 946.3C961.07 969.95 976.33 984.55 993.11 1009.45C1022.61 1053.22 1034.69 1095.89 1040.14 1123.5ZM758.71 1025.07C758.67 1024.49 758.13 1018.21 753.4 1015.89C752.67 1015.54 751.6 1015.15 750.17 1015.09C748.83 1017.78 747.12 1022.02 746.47 1027.49C745.88 1032.44 746.39 1036.6 746.96 1039.41C747.9 1039.35 752.17 1038.98 755.5 1035.39C759.41 1031.14 758.82 1025.82 758.71 1025.07Z" fill="#FF9204"/>
<path d="M686.66 1284.75C694.09 1285.64 700.93 1286.28 707.08 1286.85C700.24 1286.33 693.44 1285.64 686.66 1284.75Z" fill="#004A3B"/>
<path d="M1040.38 1156.98C1030.33 1169.55 1016.93 1184.28 999.69 1198.88C978.63 1216.72 954.32 1232.26 927.84 1245.14C954.64 1231.27 975.85 1215.62 981.2 1211.62C1005.9 1193.15 1024.78 1174.43 1036.44 1161.44C1037.87 1159.86 1039.17 1158.37 1040.38 1156.98Z" fill="#004A3B"/>
<path d="M1049.96 1144.37C1050.06 1144.47 1049.66 1145.17 1048.79 1146.42C1046.89 1149.17 1042.71 1154.48 1036.44 1161.44C1043.47 1152.7 1047.78 1146.72 1049.33 1144.92C1049.69 1144.5 1049.91 1144.31 1049.96 1144.37Z" fill="#002B20"/>
<path d="M707.08 1286.85C700.24 1286.33 693.44 1285.64 686.66 1284.75C694.09 1285.64 700.93 1286.28 707.08 1286.85Z" fill="#001D12"/>
<path d="M1040.38 1156.98C1030.33 1169.55 1016.93 1184.28 999.69 1198.88C978.63 1216.72 954.32 1232.26 927.84 1245.14C954.64 1231.27 975.85 1215.62 981.2 1211.62C1005.9 1193.15 1024.78 1174.43 1036.44 1161.44C1037.87 1159.86 1039.17 1158.37 1040.38 1156.98Z" fill="#001D12"/>
<path d="M1074.6 1186.63C1074.59 1186.64 1074.59 1186.65 1074.59 1186.65C1074.59 1186.64 1074.6 1186.64 1074.6 1186.63Z" fill="#005242"/>
<path d="M422.559 633.38C421.729 633 420.909 632.59 420.109 632.16C395.969 619 377.909 610.03 355.519 596.48C284.659 553.58 165.299 481.31 94.3592 344.59C89.0092 334.29 66.8292 290.7 51.4692 228.64C29.1792 138.67 33.4792 58.1799 42.6392 0.419922C71.3192 798.81 1245.89 559.25 1067.32 1181.8C1068.29 1168.2 1068.86 1146.79 1064.96 1121.18C1034.6 870.51 717.499 767.95 422.559 633.38Z" fill="#FF9204"/>
<path d="M1067.32 1181.78C1485.12 368.53 356.77 709.35 42.6396 0.429932C185.93 715.31 1396.11 495.88 1067.32 1181.78Z" fill="#E22E02"/>
<path d="M1133.25 1122.35C1109.25 1150.33 1084.89 1169.56 1067.32 1181.8C1067.32 1181.79 1067.32 1181.79 1067.32 1181.78C1485.12 368.53 356.77 709.35 42.6396 0.429924V0.419922C53.8996 19.6599 72.9196 50.1699 100.14 84.7099C256.14 282.56 479.67 356.32 551.07 378.91C558.46 381.25 580.97 387.75 603.13 394.18C697 421.33 765.03 439.11 775.59 441.95C918.74 480.39 1124.97 535.79 1197.09 694.53C1259.5 831.85 1227.23 1012.78 1133.25 1122.35Z" fill="#D60C00"/>
<path d="M42.6396 0.419922C42.6396 0.429922 42.6396 0.429924 42.6396 0.429924C185.93 715.31 1396.11 495.88 1067.32 1181.78C1067.32 1181.79 1067.32 1181.79 1067.32 1181.8C1245.89 559.25 71.3196 798.81 42.6396 0.419922Z" fill="#FF6D00"/>
<path d="M816.55 1373.76C772.75 1392.81 668.79 1431.59 547.2 1431.59C472.8 1431.59 414.55 1428.65 336.68 1386.19L366.18 1359.26C544.68 1428.64 752.15 1393.62 816.55 1373.76Z" fill="#D60C00"/>
<path d="M408.569 1320.58L453.699 1279.39C479.179 1301.29 478.659 1298.34 490.169 1305.38C558.169 1346.99 621.159 1360.98 651.169 1366.53C729.009 1380.87 794.289 1373.01 834.719 1364.88C811.369 1370.47 580.299 1430.06 408.569 1320.58Z" fill="#FF9204"/>
<path d="M816.55 1373.76C752.15 1393.62 511.43 1442.51 366.18 1359.26L408.57 1320.58C580.3 1430.06 811.37 1370.47 834.72 1364.88C835.36 1364.75 836.02 1364.62 836.65 1364.49C833.43 1366.09 826.56 1369.41 816.55 1373.76Z" fill="#FF6D00"/>
<path d="M246.29 710.22C291.87 734.48 321.1 760.22 332.35 770.6C341.41 778.98 348.6 786.4 353.62 791.79C337.7 820.73 284.26 926.13 312.83 1058.76C334.07 1157.11 390.38 1223.88 434.81 1263.48L389.13 1305.46C341.04 1261.82 107.27 1027.49 246.29 710.22Z" fill="#FF9204"/>
<path d="M347.27 1343.73L313.91 1374.59C311.52 1373.31 309.12 1371.96 306.73 1370.6C151.11 1266.83 81.6597 1140.03 47.8897 1034.3C21.7497 952.4 14.5697 879.48 7.6597 809.11C2.3097 754.99 0.919687 709.37 0.679688 676.64C7.09969 675 15.7597 672.97 26.1797 671.17C31.0897 670.34 48.2497 667.46 72.3597 666.42C89.6997 665.66 105.36 666.07 115.98 666.76C24.2497 1056.11 287.16 1294.29 347.27 1343.73Z" fill="#D60C00"/>
<path d="M389.13 1305.46L347.27 1343.73C287.16 1294.29 24.2502 1056.11 115.98 666.76C117.64 666.87 119.18 666.98 120.58 667.1C166.99 671.01 206.47 690.41 233.73 703.78C238.05 705.91 242.22 708.06 246.29 710.22C107.27 1027.49 341.04 1261.82 389.13 1305.46Z" fill="#FF6D00"/>
<path d="M1048.79 1146.42C1028.34 1182.25 959.49 1291.1 826.74 1330.78C646.12 1384.79 435.35 1284.43 363.81 1117.87C330.5 1040.33 320.87 933.31 366.53 834.57C398.97 764.39 448.41 722.07 476.52 701.46L476.49 701.29L494.78 709.27C512.36 716.86 529.93 724.44 547.51 732.03C559.5 737.21 571.05 742.53 583.05 747.71C583.01 747.72 582.97 747.74 582.94 747.76L610.09 759.61C530.61 763.45 400.62 891.23 419.9 1039.8C421.41 1050.02 423.18 1058.19 424.49 1063.67C424.73 1064.63 424.96 1065.59 425.21 1066.55C425.22 1066.56 425.22 1066.57 425.22 1066.59C428.23 1078.56 431.97 1089.85 436.25 1100.54C452.25 1139.23 479.63 1178.38 521.66 1216.28C533.79 1226.32 546.66 1235.24 560.13 1243.07C560.32 1243.17 560.5 1243.28 560.67 1243.39C608.28 1272.02 653.26 1280.77 686.49 1284.73C686.55 1284.74 686.6 1284.75 686.66 1284.75C693.44 1285.64 700.24 1286.33 707.08 1286.85C707.29 1286.87 707.49 1286.88 707.69 1286.91C718.71 1287.93 827.5 1297.07 927.79 1245.17C927.81 1245.17 927.83 1245.16 927.84 1245.14C954.32 1232.26 978.63 1216.72 999.69 1198.88C1016.93 1184.28 1030.33 1169.55 1040.38 1156.98C1044.48 1152.21 1047.32 1148.55 1048.79 1146.42Z" fill="#D60C00"/>
<path d="M606.34 877.37C596.37 901.48 585.62 927.74 584.94 962.97C584.91 964.34 584.87 966.46 584.88 969.23C584.93 979.47 585.74 1000.01 592.3 1025.07C594.17 1032.21 598.32 1046.67 606.32 1063.94C608.68 1069.02 616.2 1084.79 629.48 1103.43C632.89 1108.21 639.26 1117.09 648.73 1127.33C667.32 1147.43 685.24 1159.12 698.44 1167.61C718.48 1180.51 735.45 1188.17 742.6 1191.26C803.48 1217.56 858 1216.52 875.5 1215.68C903.45 1214.35 924.47 1209.33 931.54 1207.55C986.47 1193.66 1031.76 1170.43 1049.96 1144.36C1023.2 1182.68 965.4 1249.08 866.15 1277.84C841.95 1284.85 693.79 1331.65 567.39 1253.74C535.84 1234.29 513.8 1212.18 500.02 1196.33C510.18 1203.4 529.85 1215.11 557.42 1219.77C584.56 1224.36 606.67 1219.97 618.57 1216.71C602 1214.49 572.2 1208.29 541.12 1188.18C533.91 1183.52 504.01 1163.47 482.01 1127.04C434.8 1048.83 460.66 955.82 461.63 955.84C462.33 955.86 451.35 1003.01 476.92 1047.55C488.56 1067.83 504.46 1081.78 518.7 1091.37C509.07 1076.57 482.82 1032.02 487.11 971.13C492.7 891.86 545.83 844.63 556.4 835.59C550.24 842.34 520.48 876.28 523.8 925.27C525.68 953.15 537.44 973.47 544.18 983.35C542.32 967.3 541.29 941.34 549.27 911C560.27 869.21 582.13 842.75 588 835.93C616.16 803.18 648.95 788.85 665.44 782.94C633.58 819.14 616.02 853.96 606.34 877.37Z" fill="#FF9204"/>
<path d="M969.42 1205.69C874.21 1260.87 771.03 1265.85 693.78 1227.46C712.97 1230.18 729.63 1227.61 744.8 1221.93C730.39 1217.41 714.56 1211.17 698.05 1202.45C696.33 1201.54 694.38 1200.5 692.23 1199.33C676.09 1190.52 648.76 1173.95 622.64 1144.36C610.76 1130.9 576.58 1091.19 565.07 1029.21C547.58 935.1 595.86 862.34 605.83 847.31C631.89 808.03 664.93 782.48 665.44 782.94C665.75 783.23 654.87 794.24 641.46 813.43C636.61 820.38 628.96 831.87 620.82 846.88C617.09 853.76 608.08 870.96 599.41 894.6C595.38 905.56 592.48 915.07 590.45 922.32C588.47 929.36 583.22 953.62 585.59 985.65C586.06 991.99 587.72 1010.62 594.78 1033.82C597.81 1043.75 605.39 1066.25 621.61 1091.71C627.52 1100.98 640.56 1120.04 662 1139.83C665.06 1142.65 679.73 1156.04 702.2 1169.99C709.11 1174.28 731.77 1187.95 764.54 1199.14C803.33 1212.37 834.82 1214.81 843.81 1215.39C849.49 1215.75 876.63 1217.33 906.7 1212.64C991.74 1199.38 1049.12 1143.18 1049.96 1144.36C1050.59 1145.24 1021.13 1179.28 969.42 1205.69Z" fill="#FF6D00"/>
</svg>
